<svg width="21" height="28" viewBox="0 0 21 28" fill="none" xmlns="http://www.w3.org/2000/svg">
<path d="M14.3271 8.91228V6.32925C14.3271 5.86911 13.954 5.49603 13.4939 5.49603H10.9943V4.66282C10.9943 3.28241 12.1135 2.16319 13.4939 2.16319C13.954 2.16319 14.3271 1.79011 14.3271 1.32998C14.3271 0.869839 13.954 0.496765 13.4939 0.496765C11.1932 0.496765 9.32784 2.36213 9.32784 4.66282V5.49603H6.8282C6.36806 5.49603 5.99499 5.86911 5.99499 6.32925V8.91228C1.72192 10.8708 -0.609687 15.5414 0.392365 20.1334C1.39482 24.7258 5.4604 28.0001 10.161 28.0001C14.8613 28.0001 18.9273 24.7258 19.9297 20.1334C20.9318 15.5414 18.6002 10.8708 14.3271 8.91228ZM10.9943 26.3263V25.4931C10.9943 25.033 10.6212 24.6599 10.161 24.6599C9.70091 24.6599 9.32784 25.033 9.32784 25.4931V26.3263C5.35462 25.9455 2.20973 22.8006 1.82892 18.8274H2.66214C3.12227 18.8274 3.49535 18.4543 3.49535 17.9942C3.49535 17.5341 3.12227 17.161 2.66214 17.161H1.82892C2.14301 14.0491 4.17315 11.3753 7.08654 10.237C7.40713 10.1133 7.61869 9.80571 7.61991 9.46193V7.16246H12.6192V9.46193C12.62 9.80571 12.8316 10.1133 13.1522 10.237C16.0981 11.3505 18.1644 14.0291 18.4932 17.161H17.66C17.1998 17.161 16.8267 17.5341 16.8267 17.9942C16.8267 18.4543 17.1998 18.8274 17.66 18.8274H18.4932C18.1124 22.8006 14.9675 25.9455 10.9943 26.3263Z" fill="#FFBB01"/>
</svg>
