<svg width="92" height="21" viewBox="0 0 92 21" fill="none" xmlns="http://www.w3.org/2000/svg">
<path d="M6.26953 20.3066C5.22786 19.9811 4.44661 19.4505 3.92578 18.7148C3.41146 17.9792 3.1543 17.0091 3.1543 15.8047V13.4512C3.1543 11.6152 2.34049 10.6973 0.712891 10.6973V10.0527C2.34049 10.0527 3.1543 9.14128 3.1543 7.31836V4.90625C3.16081 3.70182 3.42122 2.73177 3.93555 1.99609C4.45638 1.26042 5.23438 0.729818 6.26953 0.404297L6.41602 0.84375C4.5931 1.4362 3.68164 2.82617 3.68164 5.01367V7.24023C3.68164 9.01107 2.99479 10.056 1.62109 10.375C2.99479 10.7201 3.68164 11.765 3.68164 13.5098V15.7461C3.68164 17.862 4.60938 19.2324 6.46484 19.8574L6.26953 20.3066ZM8.92578 16V5.9707H7.08984V5.43359H8.92578V3.89062C8.93229 2.91406 9.17643 2.1556 9.6582 1.61523C10.1465 1.06836 10.8236 0.794922 11.6895 0.794922C12.1712 0.794922 12.5879 0.85026 12.9395 0.960938L12.8613 1.46875C12.5228 1.37109 12.1354 1.32227 11.6992 1.32227C11.0026 1.32227 10.4525 1.55013 10.0488 2.00586C9.65169 2.45508 9.45312 3.09635 9.45312 3.92969V5.43359H12.2461V5.9707H9.45312V16H8.92578ZM19.0918 5.81445L18.4082 5.75586C17.5098 5.75586 16.7578 6.04883 16.1523 6.63477C15.5469 7.21419 15.1497 8.02799 14.9609 9.07617V16H14.4336V5.43359H14.9609V7.63086C15.2474 6.89518 15.6771 6.3125 16.25 5.88281C16.8229 5.45312 17.5423 5.23828 18.4082 5.23828C18.7142 5.23828 18.9616 5.27409 19.1504 5.3457L19.0918 5.81445ZM20.1367 10.5117C20.1367 9.5026 20.3288 8.59766 20.7129 7.79688C21.1035 6.98958 21.6504 6.36133 22.3535 5.91211C23.0632 5.46289 23.8639 5.23828 24.7559 5.23828C25.6413 5.23828 26.4355 5.45638 27.1387 5.89258C27.8418 6.32878 28.3887 6.94727 28.7793 7.74805C29.1764 8.54883 29.3783 9.45052 29.3848 10.4531V10.9219C29.3848 11.9375 29.1927 12.8457 28.8086 13.6465C28.4245 14.4473 27.8776 15.0723 27.168 15.5215C26.4648 15.9707 25.6673 16.1953 24.7754 16.1953C23.8835 16.1953 23.0827 15.974 22.373 15.5312C21.6699 15.0885 21.123 14.4701 20.7324 13.6758C20.3418 12.875 20.1432 11.9766 20.1367 10.9805V10.5117ZM20.6641 10.9219C20.6641 11.8008 20.8366 12.6081 21.1816 13.3438C21.5332 14.0729 22.0182 14.6426 22.6367 15.0527C23.2617 15.4629 23.9746 15.668 24.7754 15.668C25.9798 15.668 26.9596 15.2155 27.7148 14.3105C28.4766 13.4056 28.8574 12.2402 28.8574 10.8145V10.5117C28.8574 9.64583 28.6816 8.84505 28.3301 8.10938C27.9785 7.3737 27.4902 6.80078 26.8652 6.39062C26.2467 5.97396 25.5436 5.76562 24.7559 5.76562C23.5514 5.76562 22.5684 6.22461 21.8066 7.14258C21.0449 8.06055 20.6641 9.21615 20.6641 10.6094V10.9219ZM32.4805 7.89453C32.8255 7.07422 33.3333 6.42643 34.0039 5.95117C34.6745 5.47591 35.4167 5.23828 36.2305 5.23828C37.3633 5.23828 38.2031 5.56055 38.75 6.20508C39.3034 6.8431 39.5833 7.8099 39.5898 9.10547V16H39.0625V9.08594C39.056 7.95312 38.8249 7.11654 38.3691 6.57617C37.9134 6.0293 37.1908 5.75586 36.2012 5.75586C35.2897 5.75586 34.4987 6.08138 33.8281 6.73242C33.1641 7.37695 32.7148 8.21029 32.4805 9.23242V16H31.9531V5.43359H32.4805V7.89453ZM44.0918 2.58203V5.43359H46.4941V5.9707H44.0918V13.4707C44.0918 14.2194 44.2122 14.7728 44.4531 15.1309C44.7005 15.4889 45.1107 15.668 45.6836 15.668C45.9701 15.668 46.3184 15.6387 46.7285 15.5801L46.8164 16.0781C46.6016 16.1562 46.2337 16.1953 45.7129 16.1953C44.9447 16.1953 44.3945 15.9837 44.0625 15.5605C43.7305 15.1309 43.5612 14.457 43.5547 13.5391V5.9707H41.6016V5.43359H43.5547V2.58203H44.0918ZM52.7441 9.75977H48.1543V9.23242H52.7441V9.75977ZM58.9746 16.1953C58.1217 16.1953 57.3372 15.9674 56.6211 15.5117C55.9115 15.0495 55.3548 14.418 54.9512 13.6172C54.5475 12.8164 54.3457 11.9277 54.3457 10.9512V10.5117C54.3457 9.53516 54.541 8.63997 54.9316 7.82617C55.3223 7.01237 55.8594 6.3776 56.543 5.92188C57.2266 5.46615 57.972 5.23828 58.7793 5.23828C59.9577 5.23828 60.9212 5.6582 61.6699 6.49805C62.4186 7.33789 62.793 8.44141 62.793 9.80859V10.3652H54.873V10.9414C54.873 11.8008 55.0521 12.5983 55.4102 13.334C55.7747 14.0632 56.2728 14.6361 56.9043 15.0527C57.5423 15.4694 58.2324 15.6777 58.9746 15.6777C59.6842 15.6777 60.2865 15.5605 60.7812 15.3262C61.2826 15.0853 61.7253 14.7174 62.1094 14.2227L62.4805 14.4863C61.6927 15.6257 60.5241 16.1953 58.9746 16.1953ZM58.7793 5.76562C57.7507 5.76562 56.8783 6.14974 56.1621 6.91797C55.446 7.67969 55.026 8.65299 54.9023 9.83789H62.2656V9.71094C62.2656 8.99479 62.1126 8.33073 61.8066 7.71875C61.5072 7.10026 61.0905 6.62174 60.5566 6.2832C60.0293 5.93815 59.4368 5.76562 58.7793 5.76562ZM65.7812 7.89453C66.1263 7.07422 66.6341 6.42643 67.3047 5.95117C67.9753 5.47591 68.7174 5.23828 69.5312 5.23828C70.6641 5.23828 71.5039 5.56055 72.0508 6.20508C72.6042 6.8431 72.8841 7.8099 72.8906 9.10547V16H72.3633V9.08594C72.3568 7.95312 72.1257 7.11654 71.6699 6.57617C71.2142 6.0293 70.4915 5.75586 69.502 5.75586C68.5905 5.75586 67.7995 6.08138 67.1289 6.73242C66.4648 7.37695 66.0156 8.21029 65.7812 9.23242V16H65.2539V5.43359H65.7812V7.89453ZM75.7227 10.6094C75.7227 8.92318 76.0775 7.60807 76.7871 6.66406C77.4967 5.71354 78.4701 5.23828 79.707 5.23828C80.5013 5.23828 81.2012 5.41732 81.8066 5.77539C82.4186 6.13346 82.9134 6.66732 83.291 7.37695V1H83.8184V16H83.291V14.3105C82.9329 14.9095 82.4414 15.375 81.8164 15.707C81.1914 16.0326 80.4818 16.1953 79.6875 16.1953C78.4635 16.1953 77.4967 15.7103 76.7871 14.7402C76.0775 13.7702 75.7227 12.4388 75.7227 10.7461V10.6094ZM76.2695 10.8145C76.2695 12.3118 76.5658 13.4967 77.1582 14.3691C77.7507 15.235 78.5905 15.668 79.6777 15.668C80.5501 15.668 81.2956 15.4759 81.9141 15.0918C82.5326 14.7012 82.9915 14.1315 83.291 13.3828V8.43164C82.6855 6.6543 81.4876 5.76562 79.6973 5.76562C78.6165 5.76562 77.7734 6.19206 77.168 7.04492C76.569 7.89779 76.2695 9.1543 76.2695 10.8145ZM85.4883 19.8574C87.3372 19.2259 88.2617 17.8685 88.2617 15.7852V13.5098C88.2617 11.765 88.9486 10.7201 90.3223 10.375C88.9486 10.056 88.2617 9.01107 88.2617 7.24023V5.02344C88.2617 2.82292 87.3535 1.42969 85.5371 0.84375L85.6738 0.404297C86.7155 0.729818 87.4902 1.26042 87.998 1.99609C88.5124 2.72526 88.776 3.67904 88.7891 4.85742V7.28906C88.7891 9.13151 89.6029 10.0527 91.2305 10.0527V10.6973C89.6029 10.6973 88.7891 11.625 88.7891 13.4805V15.7949C88.7891 17.0059 88.5319 17.9759 88.0176 18.7051C87.5098 19.4408 86.7285 19.9746 85.6738 20.3066L85.4883 19.8574Z" fill="white"/>
</svg>
